<mxfile host="Electron" agent="Mozilla/5.0 (Macintosh; Intel Mac OS X 10_15_7) AppleWebKit/537.36 (KHTML, like Gecko) draw.io/26.2.2 Chrome/134.0.6998.178 Electron/35.1.2 Safari/537.36" version="26.2.2">
  <diagram name="Страница — 1" id="HWFvasPeEI-C2LWwnicd">
    <mxGraphModel dx="1236" dy="832" grid="1" gridSize="10" guides="1" tooltips="1" connect="1" arrows="1" fold="1" page="1" pageScale="1" pageWidth="827" pageHeight="1169" math="0" shadow="0">
      <root>
        <mxCell id="0" />
        <mxCell id="1" parent="0" />
        <mxCell id="QLiqBrZMA80hMMEvCE3J-2" value="Database" style="strokeWidth=2;html=1;shape=mxgraph.flowchart.database;whiteSpace=wrap;" vertex="1" parent="1">
          <mxGeometry x="590" y="410" width="60" height="60" as="geometry" />
        </mxCell>
        <mxCell id="QLiqBrZMA80hMMEvCE3J-17" style="edgeStyle=orthogonalEdgeStyle;rounded=0;orthogonalLoop=1;jettySize=auto;html=1;entryX=0;entryY=0.5;entryDx=0;entryDy=0;" edge="1" parent="1" source="QLiqBrZMA80hMMEvCE3J-5" target="QLiqBrZMA80hMMEvCE3J-12">
          <mxGeometry relative="1" as="geometry" />
        </mxCell>
        <mxCell id="QLiqBrZMA80hMMEvCE3J-5" value="" style="sketch=0;outlineConnect=0;fontColor=#232F3E;gradientColor=none;fillColor=#232F3D;strokeColor=none;dashed=0;verticalLabelPosition=bottom;verticalAlign=top;align=center;html=1;fontSize=12;fontStyle=0;aspect=fixed;pointerEvents=1;shape=mxgraph.aws4.mobile_client;" vertex="1" parent="1">
          <mxGeometry x="70" y="480" width="41" height="78" as="geometry" />
        </mxCell>
        <mxCell id="QLiqBrZMA80hMMEvCE3J-16" style="edgeStyle=orthogonalEdgeStyle;rounded=0;orthogonalLoop=1;jettySize=auto;html=1;" edge="1" parent="1" source="QLiqBrZMA80hMMEvCE3J-6" target="QLiqBrZMA80hMMEvCE3J-13">
          <mxGeometry relative="1" as="geometry" />
        </mxCell>
        <mxCell id="QLiqBrZMA80hMMEvCE3J-6" value="Client" style="sketch=0;outlineConnect=0;fontColor=#232F3E;gradientColor=none;strokeColor=#232F3E;fillColor=#ffffff;dashed=0;verticalLabelPosition=bottom;verticalAlign=top;align=center;html=1;fontSize=12;fontStyle=0;aspect=fixed;shape=mxgraph.aws4.resourceIcon;resIcon=mxgraph.aws4.client;" vertex="1" parent="1">
          <mxGeometry x="60.5" y="320" width="60" height="60" as="geometry" />
        </mxCell>
        <mxCell id="QLiqBrZMA80hMMEvCE3J-10" style="edgeStyle=orthogonalEdgeStyle;rounded=0;orthogonalLoop=1;jettySize=auto;html=1;" edge="1" parent="1" source="QLiqBrZMA80hMMEvCE3J-7" target="QLiqBrZMA80hMMEvCE3J-2">
          <mxGeometry relative="1" as="geometry" />
        </mxCell>
        <mxCell id="QLiqBrZMA80hMMEvCE3J-7" value="API" style="rounded=1;whiteSpace=wrap;html=1;" vertex="1" parent="1">
          <mxGeometry x="400" y="410" width="120" height="60" as="geometry" />
        </mxCell>
        <mxCell id="QLiqBrZMA80hMMEvCE3J-12" value="MobileAPI" style="rounded=1;whiteSpace=wrap;html=1;" vertex="1" parent="1">
          <mxGeometry x="240" y="489" width="120" height="60" as="geometry" />
        </mxCell>
        <mxCell id="QLiqBrZMA80hMMEvCE3J-13" value="WebAPI" style="rounded=1;whiteSpace=wrap;html=1;" vertex="1" parent="1">
          <mxGeometry x="240" y="320" width="120" height="60" as="geometry" />
        </mxCell>
        <mxCell id="QLiqBrZMA80hMMEvCE3J-14" style="edgeStyle=orthogonalEdgeStyle;rounded=0;orthogonalLoop=1;jettySize=auto;html=1;entryX=0.35;entryY=0.992;entryDx=0;entryDy=0;entryPerimeter=0;" edge="1" parent="1" source="QLiqBrZMA80hMMEvCE3J-12" target="QLiqBrZMA80hMMEvCE3J-7">
          <mxGeometry relative="1" as="geometry" />
        </mxCell>
        <mxCell id="QLiqBrZMA80hMMEvCE3J-15" style="edgeStyle=orthogonalEdgeStyle;rounded=0;orthogonalLoop=1;jettySize=auto;html=1;entryX=0.325;entryY=-0.058;entryDx=0;entryDy=0;entryPerimeter=0;" edge="1" parent="1" source="QLiqBrZMA80hMMEvCE3J-13" target="QLiqBrZMA80hMMEvCE3J-7">
          <mxGeometry relative="1" as="geometry" />
        </mxCell>
      </root>
    </mxGraphModel>
  </diagram>
</mxfile>
